<svg width="131" height="71" viewBox="0 0 131 71" fill="none" xmlns="http://www.w3.org/2000/svg">
<path d="M5.88 47.3C4.3 47.3 3.09 46.85 2.25 45.95C1.43 45.05 1.02 43.78 1.02 42.14V30.86C1.02 29.22 1.43 27.95 2.25 27.05C3.09 26.15 4.3 25.7 5.88 25.7C7.46 25.7 8.66 26.15 9.48 27.05C10.32 27.95 10.74 29.22 10.74 30.86V33.08H7.62V30.65C7.62 29.35 7.07 28.7 5.97 28.7C4.87 28.7 4.32 29.35 4.32 30.65V42.38C4.32 43.66 4.87 44.3 5.97 44.3C7.07 44.3 7.62 43.66 7.62 42.38V39.17H10.74V42.14C10.74 43.78 10.32 45.05 9.48 45.95C8.66 46.85 7.46 47.3 5.88 47.3ZM12.7144 26H16.0144V34.55H19.5544V26H22.8544V47H19.5544V37.55H16.0144V47H12.7144V26ZM25.312 26H34.312V29H28.612V34.55H33.142V37.55H28.612V44H34.312V47H25.312V26ZM40.5591 47.3C38.9591 47.3 37.7491 46.85 36.9291 45.95C36.1091 45.03 35.6991 43.72 35.6991 42.02V40.82H38.8191V42.26C38.8191 43.62 39.3891 44.3 40.5291 44.3C41.0891 44.3 41.5091 44.14 41.7891 43.82C42.0891 43.48 42.2391 42.94 42.2391 42.2C42.2391 41.32 42.0391 40.55 41.6391 39.89C41.2391 39.21 40.4991 38.4 39.4191 37.46C38.0591 36.26 37.1091 35.18 36.5691 34.22C36.0291 33.24 35.7591 32.14 35.7591 30.92C35.7591 29.26 36.1791 27.98 37.0191 27.08C37.8591 26.16 39.0791 25.7 40.6791 25.7C42.2591 25.7 43.4491 26.16 44.2491 27.08C45.0691 27.98 45.4791 29.28 45.4791 30.98V31.85H42.3591V30.77C42.3591 30.05 42.2191 29.53 41.9391 29.21C41.6591 28.87 41.2491 28.7 40.7091 28.7C39.6091 28.7 39.0591 29.37 39.0591 30.71C39.0591 31.47 39.2591 32.18 39.6591 32.84C40.0791 33.5 40.8291 34.3 41.9091 35.24C43.2891 36.44 44.2391 37.53 44.7591 38.51C45.2791 39.49 45.5391 40.64 45.5391 41.96C45.5391 43.68 45.1091 45 44.2491 45.92C43.4091 46.84 42.1791 47.3 40.5591 47.3ZM51.7212 47.3C50.1212 47.3 48.9112 46.85 48.0912 45.95C47.2712 45.03 46.8612 43.72 46.8612 42.02V40.82H49.9812V42.26C49.9812 43.62 50.5512 44.3 51.6912 44.3C52.2512 44.3 52.6712 44.14 52.9512 43.82C53.2512 43.48 53.4012 42.94 53.4012 42.2C53.4012 41.32 53.2012 40.55 52.8012 39.89C52.4012 39.21 51.6612 38.4 50.5812 37.46C49.2212 36.26 48.2712 35.18 47.7312 34.22C47.1912 33.24 46.9212 32.14 46.9212 30.92C46.9212 29.26 47.3412 27.98 48.1812 27.08C49.0212 26.16 50.2412 25.7 51.8412 25.7C53.4212 25.7 54.6112 26.16 55.4112 27.08C56.2312 27.98 56.6412 29.28 56.6412 30.98V31.85H53.5212V30.77C53.5212 30.05 53.3812 29.53 53.1012 29.21C52.8212 28.87 52.4112 28.7 51.8712 28.7C50.7712 28.7 50.2212 29.37 50.2212 30.71C50.2212 31.47 50.4212 32.18 50.8212 32.84C51.2412 33.5 51.9912 34.3 53.0712 35.24C54.4512 36.44 55.4012 37.53 55.9212 38.51C56.4412 39.49 56.7012 40.64 56.7012 41.96C56.7012 43.68 56.2712 45 55.4112 45.92C54.5712 46.84 53.3412 47.3 51.7212 47.3ZM58.5933 26H63.3033L65.4033 41.03H65.4633L67.5633 26H72.2733V47H69.1533V31.1H69.0933L66.6933 47H63.9333L61.5333 31.1H61.4733V47H58.5933V26ZM77.2859 26H81.7559L85.1759 47H81.8759L81.2759 42.83V42.89H77.5259L76.9259 47H73.8659L77.2859 26ZM80.8859 40.04L79.4159 29.66H79.3559L77.9159 40.04H80.8859ZM90.979 47.3C89.379 47.3 88.169 46.85 87.349 45.95C86.529 45.03 86.119 43.72 86.119 42.02V40.82H89.239V42.26C89.239 43.62 89.809 44.3 90.949 44.3C91.509 44.3 91.929 44.14 92.209 43.82C92.509 43.48 92.659 42.94 92.659 42.2C92.659 41.32 92.459 40.55 92.059 39.89C91.659 39.21 90.919 38.4 89.839 37.46C88.479 36.26 87.529 35.18 86.989 34.22C86.449 33.24 86.179 32.14 86.179 30.92C86.179 29.26 86.599 27.98 87.439 27.08C88.279 26.16 89.499 25.7 91.099 25.7C92.679 25.7 93.869 26.16 94.669 27.08C95.489 27.98 95.899 29.28 95.899 30.98V31.85H92.779V30.77C92.779 30.05 92.639 29.53 92.359 29.21C92.079 28.87 91.669 28.7 91.129 28.7C90.029 28.7 89.479 29.37 89.479 30.71C89.479 31.47 89.679 32.18 90.079 32.84C90.499 33.5 91.249 34.3 92.329 35.24C93.709 36.44 94.659 37.53 95.179 38.51C95.699 39.49 95.959 40.64 95.959 41.96C95.959 43.68 95.529 45 94.669 45.92C93.829 46.84 92.599 47.3 90.979 47.3ZM100.431 29H96.9811V26H107.181V29H103.731V47H100.431V29ZM108.779 26H117.779V29H112.079V34.55H116.609V37.55H112.079V44H117.779V47H108.779V26ZM119.677 26H124.567C126.267 26 127.507 26.4 128.287 27.2C129.067 27.98 129.457 29.19 129.457 30.83V32.12C129.457 34.3 128.737 35.68 127.297 36.26V36.32C128.097 36.56 128.657 37.05 128.977 37.79C129.317 38.53 129.487 39.52 129.487 40.76V44.45C129.487 45.05 129.507 45.54 129.547 45.92C129.587 46.28 129.687 46.64 129.847 47H126.487C126.367 46.66 126.287 46.34 126.247 46.04C126.207 45.74 126.187 45.2 126.187 44.42V40.58C126.187 39.62 126.027 38.95 125.707 38.57C125.407 38.19 124.877 38 124.117 38H122.977V47H119.677V26ZM124.177 35C124.837 35 125.327 34.83 125.647 34.49C125.987 34.15 126.157 33.58 126.157 32.78V31.16C126.157 30.4 126.017 29.85 125.737 29.51C125.477 29.17 125.057 29 124.477 29H122.977V35H124.177Z" fill="white"/>
<path d="M63.3125 2.125C63.3125 0.95625 64.2969 0 65.5 0C66.7031 0 67.6875 0.95625 67.6875 2.125V4.25H69.875C71.0781 4.25 72.0625 5.20625 72.0625 6.375C72.0625 7.54375 71.0781 8.5 69.875 8.5H67.6875V12.75H74.7695C76.2871 12.75 77.5313 13.9586 77.5313 15.4328C77.5313 15.7648 77.4629 16.0836 77.3535 16.4023L72.9102 27.625H73.1563C74.9746 27.625 76.4375 29.0461 76.4375 30.8125C76.4375 32.5789 74.9746 34 73.1563 34H72.6094L74.7969 51H56.2031L58.3906 34H57.8438C56.0254 34 54.5625 32.5789 54.5625 30.8125C54.5625 29.0461 56.0254 27.625 57.8438 27.625H58.0898L53.6465 16.4023C53.5234 16.0969 53.4688 15.7648 53.4688 15.4328C53.4688 13.9453 54.7129 12.75 56.2305 12.75H63.3125V8.5H61.125C59.9219 8.5 58.9375 7.54375 58.9375 6.375C58.9375 5.20625 59.9219 4.25 61.125 4.25H63.3125V2.125ZM76.4375 55.25L82.3437 62.9C82.7676 63.4578 83 64.1219 83 64.8125C83 66.5789 81.5371 68 79.7188 68H51.2813C49.4629 68 48 66.5789 48 64.8125C48 64.1219 48.2324 63.4578 48.6563 62.9L54.5625 55.25H76.4375Z" fill="#D9D9D9" fill-opacity="0.5"/>
<path d="M13.8197 67.6418H42.5306V61.8996H13.8197V67.6418ZM36.1941 34.4041L37.5282 35.1113C40.5793 30.9368 43.3987 32.0632 43.3987 32.0632L41.3296 37.1354L44.7404 38.9538L45.0151 42.112L51.1803 52.5197L47.0124 55.3305C47.0124 55.3305 44.4457 51.8479 43.2178 51.1521C42.1976 50.5779 39.2729 50.1712 37.8422 50.0037L31.3784 42.6432L30.2299 43.6538L33.7853 47.703C33.7729 47.7202 33.7614 47.7384 33.7489 47.7575C30.3247 53.3246 35.9501 57.8724 40.3036 60.3693H16.0525C16.9004 30.1348 36.1941 34.4041 36.1941 34.4041Z" fill="#D9D9D9" fill-opacity="0.5"/>
<path d="M116.18 67.6418H87.4694V61.8996H116.18V67.6418ZM93.8059 34.4041L92.4718 35.1113C89.4207 30.9368 86.6013 32.0632 86.6013 32.0632L88.6704 37.1354L85.2596 38.9538L84.9849 42.112L78.8197 52.5197L82.9876 55.3305C82.9876 55.3305 85.5543 51.8479 86.7822 51.1521C87.8024 50.5779 90.7271 50.1712 92.1579 50.0037L98.6216 42.6432L99.7701 43.6538L96.2147 47.703C96.2272 47.7202 96.2386 47.7384 96.2511 47.7575C99.6753 53.3246 94.0499 57.8724 89.6964 60.3693H113.948C113.1 30.1348 93.8059 34.4041 93.8059 34.4041Z" fill="#D9D9D9" fill-opacity="0.5"/>
</svg>
