<svg width="114" height="100" viewBox="0 0 114 100" fill="none" xmlns="http://www.w3.org/2000/svg">
<path d="M55.3125 2.125C55.3125 0.95625 56.2969 0 57.5 0C58.7031 0 59.6875 0.95625 59.6875 2.125V4.25H61.875C63.0781 4.25 64.0625 5.20625 64.0625 6.375C64.0625 7.54375 63.0781 8.5 61.875 8.5H59.6875V12.75H66.7695C68.2871 12.75 69.5313 13.9586 69.5313 15.4328C69.5313 15.7648 69.4629 16.0836 69.3535 16.4023L64.9102 27.625H65.1563C66.9746 27.625 68.4375 29.0461 68.4375 30.8125C68.4375 32.5789 66.9746 34 65.1563 34H64.6094L66.7969 51H48.2031L50.3906 34H49.8438C48.0254 34 46.5625 32.5789 46.5625 30.8125C46.5625 29.0461 48.0254 27.625 49.8438 27.625H50.0898L45.6465 16.4023C45.5234 16.0969 45.4688 15.7648 45.4688 15.4328C45.4688 13.9453 46.7129 12.75 48.2305 12.75H55.3125V8.5H53.125C51.9219 8.5 50.9375 7.54375 50.9375 6.375C50.9375 5.20625 51.9219 4.25 53.125 4.25H55.3125V2.125ZM68.4375 55.25L74.3437 62.9C74.7676 63.4578 75 64.1219 75 64.8125C75 66.5789 73.5371 68 71.7188 68H43.2813C41.4629 68 40 66.5789 40 64.8125C40 64.1219 40.2324 63.4578 40.6563 62.9L46.5625 55.25H68.4375Z" fill="#D9D9D9"/>
<path d="M5.8197 67.6418H34.5306V61.8996H5.8197V67.6418ZM28.1941 34.4041L29.5282 35.1113C32.5793 30.9368 35.3987 32.0632 35.3987 32.0632L33.3296 37.1354L36.7404 38.9538L37.0151 42.112L43.1803 52.5197L39.0124 55.3305C39.0124 55.3305 36.4457 51.8479 35.2178 51.1521C34.1976 50.5779 31.2729 50.1712 29.8421 50.0037L23.3784 42.6432L22.2299 43.6538L25.7853 47.703C25.7728 47.7202 25.7614 47.7384 25.7489 47.7575C22.3247 53.3246 27.9501 57.8724 32.3036 60.3693H8.05246C8.90039 30.1348 28.1941 34.4041 28.1941 34.4041Z" fill="#D9D9D9"/>
<path d="M108.18 67.6418H79.4694V61.8996H108.18V67.6418ZM85.8059 34.4041L84.4718 35.1113C81.4207 30.9368 78.6013 32.0632 78.6013 32.0632L80.6704 37.1354L77.2596 38.9538L76.9849 42.112L70.8197 52.5197L74.9876 55.3305C74.9876 55.3305 77.5543 51.8479 78.7822 51.1521C79.8024 50.5779 82.7271 50.1712 84.1579 50.0037L90.6216 42.6432L91.7701 43.6538L88.2147 47.703C88.2272 47.7202 88.2386 47.7384 88.2511 47.7575C91.6753 53.3246 86.0499 57.8724 81.6964 60.3693H105.948C105.1 30.1348 85.8059 34.4041 85.8059 34.4041Z" fill="#D9D9D9"/>
<path d="M9.96883 93.2303C8.70483 93.2303 7.73683 92.8703 7.06483 92.1503C6.40883 91.4303 6.08083 90.4143 6.08083 89.1023V80.0783C6.08083 78.7663 6.40883 77.7503 7.06483 77.0303C7.73683 76.3103 8.70483 75.9503 9.96883 75.9503C11.2328 75.9503 12.1928 76.3103 12.8488 77.0303C13.5208 77.7503 13.8568 78.7663 13.8568 80.0783V81.8543H11.3608V79.9103C11.3608 78.8703 10.9208 78.3503 10.0408 78.3503C9.16083 78.3503 8.72083 78.8703 8.72083 79.9103V89.2943C8.72083 90.3183 9.16083 90.8303 10.0408 90.8303C10.9208 90.8303 11.3608 90.3183 11.3608 89.2943V86.7263H13.8568V89.1023C13.8568 90.4143 13.5208 91.4303 12.8488 92.1503C12.1928 92.8703 11.2328 93.2303 9.96883 93.2303ZM15.4363 76.1903H18.0763V83.0303H20.9083V76.1903H23.5483V92.9903H20.9083V85.4303H18.0763V92.9903H15.4363V76.1903ZM25.5145 76.1903H32.7145V78.5903H28.1545V83.0303H31.7785V85.4303H28.1545V90.5903H32.7145V92.9903H25.5145V76.1903ZM37.7121 93.2303C36.4321 93.2303 35.4641 92.8703 34.8081 92.1503C34.1521 91.4143 33.8241 90.3663 33.8241 89.0063V88.0463H36.3201V89.1983C36.3201 90.2863 36.7761 90.8303 37.6881 90.8303C38.1361 90.8303 38.4721 90.7023 38.6961 90.4463C38.9361 90.1743 39.0561 89.7423 39.0561 89.1503C39.0561 88.4463 38.8961 87.8303 38.5761 87.3023C38.2561 86.7583 37.6641 86.1103 36.8001 85.3583C35.7121 84.3983 34.9521 83.5343 34.5201 82.7663C34.0881 81.9823 33.8721 81.1023 33.8721 80.1263C33.8721 78.7983 34.2081 77.7743 34.8801 77.0543C35.5521 76.3183 36.5281 75.9503 37.8081 75.9503C39.0721 75.9503 40.0241 76.3183 40.6641 77.0543C41.3201 77.7743 41.6481 78.8143 41.6481 80.1743V80.8703H39.1521V80.0063C39.1521 79.4303 39.0401 79.0143 38.8161 78.7583C38.5921 78.4863 38.2641 78.3503 37.8321 78.3503C36.9521 78.3503 36.5121 78.8863 36.5121 79.9583C36.5121 80.5663 36.6721 81.1343 36.9921 81.6623C37.3281 82.1903 37.9281 82.8303 38.7921 83.5823C39.8961 84.5423 40.6561 85.4143 41.0721 86.1983C41.4881 86.9823 41.6961 87.9023 41.6961 88.9583C41.6961 90.3343 41.3521 91.3903 40.6641 92.1263C39.9921 92.8623 39.0081 93.2303 37.7121 93.2303ZM46.6418 93.2303C45.3618 93.2303 44.3938 92.8703 43.7378 92.1503C43.0818 91.4143 42.7538 90.3663 42.7538 89.0063V88.0463H45.2498V89.1983C45.2498 90.2863 45.7058 90.8303 46.6178 90.8303C47.0658 90.8303 47.4018 90.7023 47.6258 90.4463C47.8658 90.1743 47.9858 89.7423 47.9858 89.1503C47.9858 88.4463 47.8258 87.8303 47.5058 87.3023C47.1858 86.7583 46.5938 86.1103 45.7298 85.3583C44.6418 84.3983 43.8818 83.5343 43.4498 82.7663C43.0178 81.9823 42.8018 81.1023 42.8018 80.1263C42.8018 78.7983 43.1378 77.7743 43.8098 77.0543C44.4818 76.3183 45.4578 75.9503 46.7378 75.9503C48.0018 75.9503 48.9538 76.3183 49.5938 77.0543C50.2498 77.7743 50.5778 78.8143 50.5778 80.1743V80.8703H48.0818V80.0063C48.0818 79.4303 47.9698 79.0143 47.7458 78.7583C47.5218 78.4863 47.1938 78.3503 46.7618 78.3503C45.8818 78.3503 45.4418 78.8863 45.4418 79.9583C45.4418 80.5663 45.6018 81.1343 45.9218 81.6623C46.2578 82.1903 46.8578 82.8303 47.7218 83.5823C48.8258 84.5423 49.5858 85.4143 50.0018 86.1983C50.4178 86.9823 50.6258 87.9023 50.6258 88.9583C50.6258 90.3343 50.2818 91.3903 49.5938 92.1263C48.9218 92.8623 47.9378 93.2303 46.6418 93.2303ZM52.1395 76.1903H55.9075L57.5875 88.2143H57.6355L59.3155 76.1903H63.0835V92.9903H60.5875V80.2703H60.5395L58.6195 92.9903H56.4115L54.4915 80.2703H54.4435V92.9903H52.1395V76.1903ZM67.0935 76.1903H70.6695L73.4055 92.9903H70.7655L70.2855 89.6543V89.7023H67.2855L66.8055 92.9903H64.3575L67.0935 76.1903ZM69.9735 87.4223L68.7975 79.1183H68.7495L67.5975 87.4223H69.9735ZM78.048 93.2303C76.768 93.2303 75.8 92.8703 75.144 92.1503C74.488 91.4143 74.16 90.3663 74.16 89.0063V88.0463H76.656V89.1983C76.656 90.2863 77.112 90.8303 78.024 90.8303C78.472 90.8303 78.808 90.7023 79.032 90.4463C79.272 90.1743 79.392 89.7423 79.392 89.1503C79.392 88.4463 79.232 87.8303 78.912 87.3023C78.592 86.7583 78 86.1103 77.136 85.3583C76.048 84.3983 75.288 83.5343 74.856 82.7663C74.424 81.9823 74.208 81.1023 74.208 80.1263C74.208 78.7983 74.544 77.7743 75.216 77.0543C75.888 76.3183 76.864 75.9503 78.144 75.9503C79.408 75.9503 80.36 76.3183 81 77.0543C81.656 77.7743 81.984 78.8143 81.984 80.1743V80.8703H79.488V80.0063C79.488 79.4303 79.376 79.0143 79.152 78.7583C78.928 78.4863 78.6 78.3503 78.168 78.3503C77.288 78.3503 76.848 78.8863 76.848 79.9583C76.848 80.5663 77.008 81.1343 77.328 81.6623C77.664 82.1903 78.264 82.8303 79.128 83.5823C80.232 84.5423 80.992 85.4143 81.408 86.1983C81.824 86.9823 82.032 87.9023 82.032 88.9583C82.032 90.3343 81.688 91.3903 81 92.1263C80.328 92.8623 79.344 93.2303 78.048 93.2303ZM85.6097 78.5903H82.8497V76.1903H91.0097V78.5903H88.2497V92.9903H85.6097V78.5903ZM92.2879 76.1903H99.4879V78.5903H94.9279V83.0303H98.5519V85.4303H94.9279V90.5903H99.4879V92.9903H92.2879V76.1903ZM101.007 76.1903H104.919C106.279 76.1903 107.271 76.5103 107.895 77.1503C108.519 77.7743 108.831 78.7423 108.831 80.0543V81.0863C108.831 82.8303 108.255 83.9343 107.103 84.3983V84.4463C107.743 84.6383 108.191 85.0303 108.447 85.6223C108.719 86.2143 108.855 87.0063 108.855 87.9983V90.9503C108.855 91.4303 108.871 91.8223 108.903 92.1263C108.935 92.4143 109.015 92.7023 109.143 92.9903H106.455C106.359 92.7183 106.295 92.4623 106.263 92.2223C106.231 91.9823 106.215 91.5503 106.215 90.9263V87.8543C106.215 87.0863 106.087 86.5503 105.831 86.2463C105.591 85.9423 105.167 85.7903 104.559 85.7903H103.647V92.9903H101.007V76.1903ZM104.607 83.3903C105.135 83.3903 105.527 83.2543 105.783 82.9823C106.055 82.7103 106.191 82.2543 106.191 81.6143V80.3183C106.191 79.7103 106.079 79.2703 105.855 78.9983C105.647 78.7263 105.311 78.5903 104.847 78.5903H103.647V83.3903H104.607Z" fill="#D9D9D9"/>
</svg>
