
<svg width="131" height="68" viewBox="0 0 131 68" fill="none" xmlns="http://www.w3.org/2000/svg">


<path d="M95.2981 55.5041C94.0695 57.235 92.2501 58.708 90.472 59.8693H112.431C111.912 45.2302 106.985 39.0548 102.318 36.4868C99.9381 35.1776 97.5807 34.779 95.814 34.709C94.9313 34.6741 94.1994 34.7213 93.6907 34.7768C93.4366 34.8045 93.2386 34.8342 93.106 34.8566C93.0513 34.8658 93.0077 34.8738 92.9759 34.8798L91.706 35.5531L91.3235 35.7558L91.0681 35.4064C89.602 33.4004 88.233 32.7198 87.2845 32.51C86.8833 32.4213 86.5456 32.4141 86.2926 32.4339L88.1334 36.9466L88.3038 37.3644L87.9056 37.5767L84.7342 39.2674L84.483 42.1553L84.4732 42.2688L84.4151 42.3668L78.4902 52.3689L81.8736 54.6506C81.9158 54.5953 81.9619 54.535 82.0117 54.4704C82.274 54.1298 82.6371 53.6677 83.0398 53.1828C83.4416 52.6989 83.8869 52.1872 84.3131 51.7497C84.7289 51.3227 85.1618 50.929 85.5357 50.7171L85.537 50.7164C85.8463 50.5423 86.2678 50.3964 86.7183 50.272C87.1766 50.1455 87.6975 50.0326 88.224 49.9339C89.1882 49.7533 90.1926 49.6164 90.9086 49.5298L97.2459 42.3132L97.5762 41.9372L97.952 42.2678L99.1004 43.2784L99.4753 43.6084L99.1458 43.9837L95.8322 47.7575C96.6208 49.1404 96.8989 50.4863 96.7817 51.771C96.6577 53.1298 96.0954 54.3809 95.2981 55.5041ZM86.9694 62.3996V67.1418H114.68V62.3996H86.9694Z" fill="#FBFBFB" stroke="none"/>
<path d="M32.7019 55.5041C33.9305 57.235 35.7499 58.708 37.528 59.8693H15.5686C16.0878 45.2302 21.0147 39.0548 25.6823 36.4868C28.0619 35.1776 30.4193 34.779 32.186 34.709C33.0687 34.6741 33.8006 34.7213 34.3093 34.7768C34.5634 34.8045 34.7614 34.8342 34.894 34.8566C34.9487 34.8658 34.9923 34.8738 35.0241 34.8798L36.294 35.5531L36.6765 35.7558L36.9319 35.4064C38.398 33.4004 39.767 32.7198 40.7155 32.51C41.1167 32.4213 41.4544 32.4141 41.7074 32.4339L39.8666 36.9466L39.6962 37.3644L40.0944 37.5767L43.2658 39.2674L43.517 42.1553L43.5268 42.2688L43.5849 42.3668L49.5098 52.3689L46.1264 54.6506C46.0842 54.5953 46.0381 54.535 45.9883 54.4704C45.726 54.1298 45.3629 53.6677 44.9602 53.1828C44.5584 52.6989 44.1131 52.1872 43.6869 51.7497C43.2711 51.3227 42.8382 50.929 42.4643 50.7171L42.463 50.7164C42.1537 50.5423 41.7322 50.3964 41.2817 50.272C40.8234 50.1455 40.3025 50.0326 39.776 49.9339C38.8118 49.7533 37.8074 49.6164 37.0914 49.5298L30.7541 42.3132L30.4238 41.9372L30.048 42.2678L28.8996 43.2784L28.5247 43.6084L28.8542 43.9837L32.1678 47.7575C31.3792 49.1404 31.1011 50.4863 31.2183 51.771C31.3423 53.1298 31.9046 54.3809 32.7019 55.5041ZM41.0306 62.3996V67.1418H13.3197V62.3996H41.0306Z" fill="#FBFBFB" stroke="none
"/>
<path d="M66.6875 4.75H66.1875V4.25V2.125C66.1875 1.24596 65.4407 0.5 64.5 0.5C63.5593 0.5 62.8125 1.24596 62.8125 2.125V4.25V4.75H62.3125H60.125C59.1843 4.75 58.4375 5.49596 58.4375 6.375C58.4375 7.25404 59.1843 8 60.125 8H62.3125H62.8125V8.5V12.75V13.25H62.3125H55.2305C53.9736 13.25 52.9688 14.2366 52.9688 15.4328C52.9688 15.7112 53.0147 15.9784 53.1103 16.2155L53.1114 16.2183L57.5547 27.4409L57.8256 28.125H57.0898H56.8438C55.2878 28.125 54.0625 29.3358 54.0625 30.8125C54.0625 32.2892 55.2878 33.5 56.8438 33.5H57.3906H57.9591L57.8865 34.0638L55.7716 50.5H73.2284L71.1135 34.0638L71.0409 33.5H71.6094H72.1562C73.7122 33.5 74.9375 32.2892 74.9375 30.8125C74.9375 29.3358 73.7122 28.125 72.1562 28.125H71.9102H71.1744L71.4453 27.4409L75.8842 16.2294C75.9789 15.9509 76.0313 15.6916 76.0313 15.4328C76.0313 14.2483 75.0247 13.25 73.7695 13.25H66.6875H66.1875V12.75V8.5V8H66.6875H68.875C69.8157 8 70.5625 7.25404 70.5625 6.375C70.5625 5.49596 69.8157 4.75 68.875 4.75H66.6875ZM80.9468 63.204C80.9464 63.2035 80.946 63.203 80.9456 63.2025L75.1919 55.75H53.8081L48.0544 63.2025C48.054 63.203 48.0537 63.2034 48.0533 63.2039C47.6931 63.6785 47.5 64.2367 47.5 64.8125C47.5 66.2892 48.7253 67.5 50.2813 67.5H78.7188C80.2747 67.5 81.5 66.2892 81.5 64.8125C81.5 64.2368 81.3069 63.6786 80.9468 63.204Z" fill="#FBFBFB" stroke="none
"/>
</svg>
